<?xml version="1.0" encoding="utf-8" standalone="no"?>
<!DOCTYPE svg PUBLIC "-//W3C//DTD SVG 1.1//EN"
  "http://www.w3.org/Graphics/SVG/1.1/DTD/svg11.dtd">
<!-- Created with matplotlib (https://matplotlib.org/) -->
<svg height="268.970555pt" version="1.1" viewBox="0 0 301.352917 268.970555" width="301.352917pt" xmlns="http://www.w3.org/2000/svg" xmlns:xlink="http://www.w3.org/1999/xlink">
 <metadata>
  <rdf:RDF xmlns:cc="http://creativecommons.org/ns#" xmlns:dc="http://purl.org/dc/elements/1.1/" xmlns:rdf="http://www.w3.org/1999/02/22-rdf-syntax-ns#">
   <cc:Work>
    <dc:type rdf:resource="http://purl.org/dc/dcmitype/StillImage"/>
    <dc:date>2024-03-06T21:32:51.322450</dc:date>
    <dc:format>image/svg+xml</dc:format>
    <dc:creator>
     <cc:Agent>
      <dc:title>Matplotlib v3.3.2, https://matplotlib.org/</dc:title>
     </cc:Agent>
    </dc:creator>
   </cc:Work>
  </rdf:RDF>
 </metadata>
 <defs>
  <style type="text/css">*{stroke-linecap:butt;stroke-linejoin:round;}</style>
 </defs>
 <g id="figure_1">
  <g id="patch_1">
   <path d="M 0 268.970555 
L 301.352917 268.970555 
L 301.352917 0 
L 0 0 
z
" style="fill:#ffffff;"/>
  </g>
  <g id="patch_2">
   <path d="M 0 266.112 
L 266.112 266.112 
L 266.112 0 
L 0 0 
z
" style="fill:#ffffff;"/>
  </g>
  <g id="pane3d_1">
   <g id="patch_3">
    <path d="M 20.093291 200.497309 
L 107.972164 126.835495 
L 106.750564 20.601991 
L 14.666234 87.800941 
" style="fill:#f2f2f2;opacity:0.5;stroke:#f2f2f2;stroke-linejoin:miter;"/>
   </g>
  </g>
  <g id="pane3d_2">
   <g id="patch_4">
    <path d="M 107.972164 126.835495 
L 248.986401 167.822766 
L 254.018702 57.930171 
L 106.750564 20.601991 
" style="fill:#e6e6e6;opacity:0.5;stroke:#e6e6e6;stroke-linejoin:miter;"/>
   </g>
  </g>
  <g id="pane3d_3">
   <g id="patch_5">
    <path d="M 20.093291 200.497309 
L 169.575269 249.318123 
L 248.986401 167.822766 
L 107.972164 126.835495 
" style="fill:#ececec;opacity:0.5;stroke:#ececec;stroke-linejoin:miter;"/>
   </g>
  </g>
  <g id="axis3d_1">
   <g id="line2d_1">
    <path d="M 20.093291 200.497309 
L 169.575269 249.318123 
" style="fill:none;stroke:#000000;stroke-linecap:square;stroke-width:0.8;"/>
   </g>
   <g id="text_1">
    <!-- $\lambda_2$ -->
    <g transform="translate(70.630114 260.49827)rotate(-341.912962)scale(0.1 -0.1)">
     <defs>
      <path d="M 36.71875 67.4375 
L 48.828125 0 
L 39.3125 0 
L 31.84375 40.4375 
L 5.125 0 
L -4.390625 0 
L 29.734375 52.4375 
L 28.03125 62.109375 
Q 26.953125 68.265625 21.734375 68.265625 
L 17.046875 68.265625 
L 18.5 75.984375 
L 24.21875 75.875 
Q 35.203125 75.734375 36.71875 67.4375 
z
" id="DejaVuSans-Oblique-955"/>
      <path d="M 19.1875 8.296875 
L 53.609375 8.296875 
L 53.609375 0 
L 7.328125 0 
L 7.328125 8.296875 
Q 12.9375 14.109375 22.625 23.890625 
Q 32.328125 33.6875 34.8125 36.53125 
Q 39.546875 41.84375 41.421875 45.53125 
Q 43.3125 49.21875 43.3125 52.78125 
Q 43.3125 58.59375 39.234375 62.25 
Q 35.15625 65.921875 28.609375 65.921875 
Q 23.96875 65.921875 18.8125 64.3125 
Q 13.671875 62.703125 7.8125 59.421875 
L 7.8125 69.390625 
Q 13.765625 71.78125 18.9375 73 
Q 24.125 74.21875 28.421875 74.21875 
Q 39.75 74.21875 46.484375 68.546875 
Q 53.21875 62.890625 53.21875 53.421875 
Q 53.21875 48.921875 51.53125 44.890625 
Q 49.859375 40.875 45.40625 35.40625 
Q 44.1875 33.984375 37.640625 27.21875 
Q 31.109375 20.453125 19.1875 8.296875 
z
" id="DejaVuSans-50"/>
     </defs>
     <use transform="translate(0 0.015625)" xlink:href="#DejaVuSans-Oblique-955"/>
     <use transform="translate(59.179688 -16.390625)scale(0.7)" xlink:href="#DejaVuSans-50"/>
    </g>
   </g>
   <g id="Line3DCollection_1">
    <path d="M 38.454245 206.493997 
L 125.360212 131.889514 
L 124.87618 25.196306 
" style="fill:none;stroke:#b0b0b0;stroke-width:0.8;"/>
    <path d="M 65.395296 215.292944 
L 150.839549 139.295351 
L 151.453341 31.932842 
" style="fill:none;stroke:#b0b0b0;stroke-width:0.8;"/>
    <path d="M 92.863881 224.264184 
L 176.776048 146.834068 
L 178.528185 38.795526 
" style="fill:none;stroke:#b0b0b0;stroke-width:0.8;"/>
    <path d="M 120.875648 233.412827 
L 203.182125 154.509272 
L 206.114824 45.787934 
" style="fill:none;stroke:#b0b0b0;stroke-width:0.8;"/>
    <path d="M 149.44687 242.744187 
L 230.070648 162.324704 
L 234.227909 52.913782 
" style="fill:none;stroke:#b0b0b0;stroke-width:0.8;"/>
   </g>
   <g id="xtick_1">
    <g id="line2d_2">
     <path d="M 39.211224 205.844168 
L 36.937028 207.796452 
" style="fill:none;stroke:#000000;stroke-linecap:square;stroke-width:0.8;"/>
    </g>
    <g id="text_2">
     <!-- 0.01 -->
     <g transform="translate(19.8017 229.867482)scale(0.1 -0.1)">
      <defs>
       <path d="M 31.78125 66.40625 
Q 24.171875 66.40625 20.328125 58.90625 
Q 16.5 51.421875 16.5 36.375 
Q 16.5 21.390625 20.328125 13.890625 
Q 24.171875 6.390625 31.78125 6.390625 
Q 39.453125 6.390625 43.28125 13.890625 
Q 47.125 21.390625 47.125 36.375 
Q 47.125 51.421875 43.28125 58.90625 
Q 39.453125 66.40625 31.78125 66.40625 
z
M 31.78125 74.21875 
Q 44.046875 74.21875 50.515625 64.515625 
Q 56.984375 54.828125 56.984375 36.375 
Q 56.984375 17.96875 50.515625 8.265625 
Q 44.046875 -1.421875 31.78125 -1.421875 
Q 19.53125 -1.421875 13.0625 8.265625 
Q 6.59375 17.96875 6.59375 36.375 
Q 6.59375 54.828125 13.0625 64.515625 
Q 19.53125 74.21875 31.78125 74.21875 
z
" id="DejaVuSans-48"/>
       <path d="M 10.6875 12.40625 
L 21 12.40625 
L 21 0 
L 10.6875 0 
z
" id="DejaVuSans-46"/>
       <path d="M 12.40625 8.296875 
L 28.515625 8.296875 
L 28.515625 63.921875 
L 10.984375 60.40625 
L 10.984375 69.390625 
L 28.421875 72.90625 
L 38.28125 72.90625 
L 38.28125 8.296875 
L 54.390625 8.296875 
L 54.390625 0 
L 12.40625 0 
z
" id="DejaVuSans-49"/>
      </defs>
      <use xlink:href="#DejaVuSans-48"/>
      <use x="63.623047" xlink:href="#DejaVuSans-46"/>
      <use x="95.410156" xlink:href="#DejaVuSans-48"/>
      <use x="159.033203" xlink:href="#DejaVuSans-49"/>
     </g>
    </g>
   </g>
   <g id="xtick_2">
    <g id="line2d_3">
     <path d="M 66.140131 214.630457 
L 63.902388 216.620797 
" style="fill:none;stroke:#000000;stroke-linecap:square;stroke-width:0.8;"/>
    </g>
    <g id="text_3">
     <!-- 0.1 -->
     <g transform="translate(49.952281 238.853092)scale(0.1 -0.1)">
      <use xlink:href="#DejaVuSans-48"/>
      <use x="63.623047" xlink:href="#DejaVuSans-46"/>
      <use x="95.410156" xlink:href="#DejaVuSans-49"/>
     </g>
    </g>
   </g>
   <g id="xtick_3">
    <g id="line2d_4">
     <path d="M 93.59595 223.588666 
L 91.396531 225.618184 
" style="fill:none;stroke:#000000;stroke-linecap:square;stroke-width:0.8;"/>
    </g>
    <g id="text_4">
     <!-- 1 -->
     <g transform="translate(82.22202 248.015318)scale(0.1 -0.1)">
      <use xlink:href="#DejaVuSans-49"/>
     </g>
    </g>
   </g>
   <g id="xtick_4">
    <g id="line2d_5">
     <path d="M 121.594297 232.72389 
L 119.435165 234.793754 
" style="fill:none;stroke:#000000;stroke-linecap:square;stroke-width:0.8;"/>
    </g>
    <g id="text_5">
     <!-- 10 -->
     <g transform="translate(107.086078 257.35942)scale(0.1 -0.1)">
      <use xlink:href="#DejaVuSans-49"/>
      <use x="63.623047" xlink:href="#DejaVuSans-48"/>
     </g>
    </g>
   </g>
   <g id="xtick_5">
    <g id="line2d_6">
     <path d="M 150.151415 242.041428 
L 148.034625 244.152853 
" style="fill:none;stroke:#000000;stroke-linecap:square;stroke-width:0.8;"/>
    </g>
    <g id="text_6">
     <!-- 100 -->
     <g transform="translate(132.512432 266.890868)scale(0.1 -0.1)">
      <use xlink:href="#DejaVuSans-49"/>
      <use x="63.623047" xlink:href="#DejaVuSans-48"/>
      <use x="127.246094" xlink:href="#DejaVuSans-48"/>
     </g>
    </g>
   </g>
  </g>
  <g id="axis3d_2">
   <g id="line2d_7">
    <path d="M 248.986401 167.822766 
L 169.575269 249.318123 
" style="fill:none;stroke:#000000;stroke-linecap:square;stroke-width:0.8;"/>
   </g>
   <g id="text_7">
    <!-- $\lambda_1$ -->
    <g transform="translate(236.271356 240.514761)rotate(-45.742112)scale(0.1 -0.1)">
     <use transform="translate(0 0.015625)" xlink:href="#DejaVuSans-Oblique-955"/>
     <use transform="translate(59.179688 -16.390625)scale(0.7)" xlink:href="#DejaVuSans-49"/>
    </g>
   </g>
   <g id="Line3DCollection_2">
    <path d="M 27.460465 78.464294 
L 32.263348 190.296126 
L 180.614552 237.989102 
" style="fill:none;stroke:#b0b0b0;stroke-width:0.8;"/>
    <path d="M 45.405105 65.369112 
L 49.35417 175.97026 
L 196.094585 222.102781 
" style="fill:none;stroke:#b0b0b0;stroke-width:0.8;"/>
    <path d="M 62.756779 52.706651 
L 65.904295 162.097617 
L 211.059547 206.745048 
" style="fill:none;stroke:#b0b0b0;stroke-width:0.8;"/>
    <path d="M 79.5444 40.45581 
L 81.938981 148.657025 
L 225.534724 191.889955 
" style="fill:none;stroke:#b0b0b0;stroke-width:0.8;"/>
    <path d="M 95.795031 28.59684 
L 97.481939 135.62861 
L 239.543776 177.513222 
" style="fill:none;stroke:#b0b0b0;stroke-width:0.8;"/>
   </g>
   <g id="xtick_6">
    <g id="line2d_8">
     <path d="M 179.364774 237.587315 
L 183.117322 238.79371 
" style="fill:none;stroke:#000000;stroke-linecap:square;stroke-width:0.8;"/>
    </g>
    <g id="text_8">
     <!-- 0.01 -->
     <g transform="translate(182.288045 258.926546)scale(0.1 -0.1)">
      <use xlink:href="#DejaVuSans-48"/>
      <use x="63.623047" xlink:href="#DejaVuSans-46"/>
      <use x="95.410156" xlink:href="#DejaVuSans-48"/>
      <use x="159.033203" xlink:href="#DejaVuSans-49"/>
     </g>
    </g>
   </g>
   <g id="xtick_7">
    <g id="line2d_9">
     <path d="M 194.85943 221.71447 
L 198.568017 222.880383 
" style="fill:none;stroke:#000000;stroke-linecap:square;stroke-width:0.8;"/>
    </g>
    <g id="text_9">
     <!-- 0.1 -->
     <g transform="translate(200.7416 242.805127)scale(0.1 -0.1)">
      <use xlink:href="#DejaVuSans-48"/>
      <use x="63.623047" xlink:href="#DejaVuSans-46"/>
      <use x="95.410156" xlink:href="#DejaVuSans-49"/>
     </g>
    </g>
   </g>
   <g id="xtick_8">
    <g id="line2d_10">
     <path d="M 209.838742 206.369548 
L 213.504191 207.496982 
" style="fill:none;stroke:#000000;stroke-linecap:square;stroke-width:0.8;"/>
    </g>
    <g id="text_10">
     <!-- 1 -->
     <g transform="translate(220.275766 227.220429)scale(0.1 -0.1)">
      <use xlink:href="#DejaVuSans-49"/>
     </g>
    </g>
   </g>
   <g id="xtick_9">
    <g id="line2d_11">
     <path d="M 224.327999 191.526642 
L 227.951125 192.61747 
" style="fill:none;stroke:#000000;stroke-linecap:square;stroke-width:0.8;"/>
    </g>
    <g id="text_11">
     <!-- 10 -->
     <g transform="translate(231.374894 212.146086)scale(0.1 -0.1)">
      <use xlink:href="#DejaVuSans-49"/>
      <use x="63.623047" xlink:href="#DejaVuSans-48"/>
     </g>
    </g>
   </g>
   <g id="xtick_10">
    <g id="line2d_12">
     <path d="M 238.350863 177.161512 
L 241.932469 178.217489 
" style="fill:none;stroke:#000000;stroke-linecap:square;stroke-width:0.8;"/>
    </g>
    <g id="text_12">
     <!-- 100 -->
     <g transform="translate(242.013912 197.557435)scale(0.1 -0.1)">
      <use xlink:href="#DejaVuSans-49"/>
      <use x="63.623047" xlink:href="#DejaVuSans-48"/>
      <use x="127.246094" xlink:href="#DejaVuSans-48"/>
     </g>
    </g>
   </g>
  </g>
  <g id="axis3d_3">
   <g id="line2d_13">
    <path d="M 248.986401 167.822766 
L 254.018702 57.930171 
" style="fill:none;stroke:#000000;stroke-linecap:square;stroke-width:0.8;"/>
   </g>
   <g id="text_13">
    <!-- NMI -->
    <g transform="translate(282.293542 111.430279)scale(0.1 -0.1)">
     <defs>
      <path d="M 9.8125 72.90625 
L 23.09375 72.90625 
L 55.421875 11.921875 
L 55.421875 72.90625 
L 64.984375 72.90625 
L 64.984375 0 
L 51.703125 0 
L 19.390625 60.984375 
L 19.390625 0 
L 9.8125 0 
z
" id="DejaVuSans-78"/>
      <path d="M 9.8125 72.90625 
L 24.515625 72.90625 
L 43.109375 23.296875 
L 61.8125 72.90625 
L 76.515625 72.90625 
L 76.515625 0 
L 66.890625 0 
L 66.890625 64.015625 
L 48.09375 14.015625 
L 38.1875 14.015625 
L 19.390625 64.015625 
L 19.390625 0 
L 9.8125 0 
z
" id="DejaVuSans-77"/>
      <path d="M 9.8125 72.90625 
L 19.671875 72.90625 
L 19.671875 0 
L 9.8125 0 
z
" id="DejaVuSans-73"/>
     </defs>
     <use xlink:href="#DejaVuSans-78"/>
     <use x="74.804688" xlink:href="#DejaVuSans-77"/>
     <use x="161.083984" xlink:href="#DejaVuSans-73"/>
    </g>
   </g>
   <g id="Line3DCollection_3">
    <path d="M 249.082814 165.717346 
L 107.948711 124.79596 
L 19.989487 198.341739 
" style="fill:none;stroke:#b0b0b0;stroke-width:0.8;"/>
    <path d="M 250.007548 145.523514 
L 107.723862 105.242444 
L 18.993519 177.659838 
" style="fill:none;stroke:#b0b0b0;stroke-width:0.8;"/>
    <path d="M 250.94762 124.994742 
L 107.495461 85.380162 
L 17.980401 156.621766 
" style="fill:none;stroke:#b0b0b0;stroke-width:0.8;"/>
    <path d="M 251.903415 104.122626 
L 107.263425 65.201743 
L 16.949683 135.218244 
" style="fill:none;stroke:#b0b0b0;stroke-width:0.8;"/>
    <path d="M 252.87533 82.898481 
L 107.027667 44.699577 
L 15.900904 113.439666 
" style="fill:none;stroke:#b0b0b0;stroke-width:0.8;"/>
    <path d="M 253.863777 61.313325 
L 106.788095 23.865811 
L 14.833584 91.276087 
" style="fill:none;stroke:#b0b0b0;stroke-width:0.8;"/>
   </g>
   <g id="xtick_11">
    <g id="line2d_14">
     <path d="M 247.898262 165.373889 
L 251.454736 166.405077 
" style="fill:none;stroke:#000000;stroke-linecap:square;stroke-width:0.8;"/>
    </g>
    <g id="text_14">
     <!-- 0.0 -->
     <g transform="translate(259.395217 170.714875)scale(0.1 -0.1)">
      <use xlink:href="#DejaVuSans-48"/>
      <use x="63.623047" xlink:href="#DejaVuSans-46"/>
      <use x="95.410156" xlink:href="#DejaVuSans-48"/>
     </g>
    </g>
   </g>
   <g id="xtick_12">
    <g id="line2d_15">
     <path d="M 248.812888 145.185301 
L 252.399735 146.200751 
" style="fill:none;stroke:#000000;stroke-linecap:square;stroke-width:0.8;"/>
    </g>
    <g id="text_15">
     <!-- 0.2 -->
     <g transform="translate(260.466918 150.560809)scale(0.1 -0.1)">
      <use xlink:href="#DejaVuSans-48"/>
      <use x="63.623047" xlink:href="#DejaVuSans-46"/>
      <use x="95.410156" xlink:href="#DejaVuSans-50"/>
     </g>
    </g>
   </g>
   <g id="xtick_13">
    <g id="line2d_16">
     <path d="M 249.742678 124.661995 
L 253.36042 125.661041 
" style="fill:none;stroke:#000000;stroke-linecap:square;stroke-width:0.8;"/>
    </g>
    <g id="text_16">
     <!-- 0.4 -->
     <g transform="translate(261.556342 130.073483)scale(0.1 -0.1)">
      <defs>
       <path d="M 37.796875 64.3125 
L 12.890625 25.390625 
L 37.796875 25.390625 
z
M 35.203125 72.90625 
L 47.609375 72.90625 
L 47.609375 25.390625 
L 58.015625 25.390625 
L 58.015625 17.1875 
L 47.609375 17.1875 
L 47.609375 0 
L 37.796875 0 
L 37.796875 17.1875 
L 4.890625 17.1875 
L 4.890625 26.703125 
z
" id="DejaVuSans-52"/>
      </defs>
      <use xlink:href="#DejaVuSans-48"/>
      <use x="63.623047" xlink:href="#DejaVuSans-46"/>
      <use x="95.410156" xlink:href="#DejaVuSans-52"/>
     </g>
    </g>
   </g>
   <g id="xtick_14">
    <g id="line2d_17">
     <path d="M 250.688012 103.795576 
L 254.337186 104.777525 
" style="fill:none;stroke:#000000;stroke-linecap:square;stroke-width:0.8;"/>
    </g>
    <g id="text_17">
     <!-- 0.6 -->
     <g transform="translate(262.663929 109.244561)scale(0.1 -0.1)">
      <defs>
       <path d="M 33.015625 40.375 
Q 26.375 40.375 22.484375 35.828125 
Q 18.609375 31.296875 18.609375 23.390625 
Q 18.609375 15.53125 22.484375 10.953125 
Q 26.375 6.390625 33.015625 6.390625 
Q 39.65625 6.390625 43.53125 10.953125 
Q 47.40625 15.53125 47.40625 23.390625 
Q 47.40625 31.296875 43.53125 35.828125 
Q 39.65625 40.375 33.015625 40.375 
z
M 52.59375 71.296875 
L 52.59375 62.3125 
Q 48.875 64.0625 45.09375 64.984375 
Q 41.3125 65.921875 37.59375 65.921875 
Q 27.828125 65.921875 22.671875 59.328125 
Q 17.53125 52.734375 16.796875 39.40625 
Q 19.671875 43.65625 24.015625 45.921875 
Q 28.375 48.1875 33.59375 48.1875 
Q 44.578125 48.1875 50.953125 41.515625 
Q 57.328125 34.859375 57.328125 23.390625 
Q 57.328125 12.15625 50.6875 5.359375 
Q 44.046875 -1.421875 33.015625 -1.421875 
Q 20.359375 -1.421875 13.671875 8.265625 
Q 6.984375 17.96875 6.984375 36.375 
Q 6.984375 53.65625 15.1875 63.9375 
Q 23.390625 74.21875 37.203125 74.21875 
Q 40.921875 74.21875 44.703125 73.484375 
Q 48.484375 72.75 52.59375 71.296875 
z
" id="DejaVuSans-54"/>
      </defs>
      <use xlink:href="#DejaVuSans-48"/>
      <use x="63.623047" xlink:href="#DejaVuSans-46"/>
      <use x="95.410156" xlink:href="#DejaVuSans-54"/>
     </g>
    </g>
   </g>
   <g id="xtick_15">
    <g id="line2d_18">
     <path d="M 251.649284 82.577368 
L 255.330439 83.541498 
" style="fill:none;stroke:#000000;stroke-linecap:square;stroke-width:0.8;"/>
    </g>
    <g id="text_18">
     <!-- 0.8 -->
     <g transform="translate(263.790139 88.065427)scale(0.1 -0.1)">
      <defs>
       <path d="M 31.78125 34.625 
Q 24.75 34.625 20.71875 30.859375 
Q 16.703125 27.09375 16.703125 20.515625 
Q 16.703125 13.921875 20.71875 10.15625 
Q 24.75 6.390625 31.78125 6.390625 
Q 38.8125 6.390625 42.859375 10.171875 
Q 46.921875 13.96875 46.921875 20.515625 
Q 46.921875 27.09375 42.890625 30.859375 
Q 38.875 34.625 31.78125 34.625 
z
M 21.921875 38.8125 
Q 15.578125 40.375 12.03125 44.71875 
Q 8.5 49.078125 8.5 55.328125 
Q 8.5 64.0625 14.71875 69.140625 
Q 20.953125 74.21875 31.78125 74.21875 
Q 42.671875 74.21875 48.875 69.140625 
Q 55.078125 64.0625 55.078125 55.328125 
Q 55.078125 49.078125 51.53125 44.71875 
Q 48 40.375 41.703125 38.8125 
Q 48.828125 37.15625 52.796875 32.3125 
Q 56.78125 27.484375 56.78125 20.515625 
Q 56.78125 9.90625 50.3125 4.234375 
Q 43.84375 -1.421875 31.78125 -1.421875 
Q 19.734375 -1.421875 13.25 4.234375 
Q 6.78125 9.90625 6.78125 20.515625 
Q 6.78125 27.484375 10.78125 32.3125 
Q 14.796875 37.15625 21.921875 38.8125 
z
M 18.3125 54.390625 
Q 18.3125 48.734375 21.84375 45.5625 
Q 25.390625 42.390625 31.78125 42.390625 
Q 38.140625 42.390625 41.71875 45.5625 
Q 45.3125 48.734375 45.3125 54.390625 
Q 45.3125 60.0625 41.71875 63.234375 
Q 38.140625 66.40625 31.78125 66.40625 
Q 25.390625 66.40625 21.84375 63.234375 
Q 18.3125 60.0625 18.3125 54.390625 
z
" id="DejaVuSans-56"/>
      </defs>
      <use xlink:href="#DejaVuSans-48"/>
      <use x="63.623047" xlink:href="#DejaVuSans-46"/>
      <use x="95.410156" xlink:href="#DejaVuSans-56"/>
     </g>
    </g>
   </g>
   <g id="xtick_16">
    <g id="line2d_19">
     <path d="M 252.6269 60.998399 
L 256.340601 61.943959 
" style="fill:none;stroke:#000000;stroke-linecap:square;stroke-width:0.8;"/>
    </g>
    <g id="text_19">
     <!-- 1.0 -->
     <g transform="translate(264.935446 66.527175)scale(0.1 -0.1)">
      <use xlink:href="#DejaVuSans-49"/>
      <use x="63.623047" xlink:href="#DejaVuSans-46"/>
      <use x="95.410156" xlink:href="#DejaVuSans-48"/>
     </g>
    </g>
   </g>
  </g>
  <g id="axes_1">
   <g id="Poly3DCollection_1">
    <path clip-path="url(#p945b3f9050)" d="M 100.73226 140.651033 
L 111.394549 131.630667 
L 129.148982 136.814841 
L 118.613134 145.948496 
z
" style="fill:#888800;stroke:#000000;"/>
    <path clip-path="url(#p945b3f9050)" d="M 126.345455 148.239306 
L 136.825884 139.056445 
L 154.899407 144.333791 
L 144.551231 153.633026 
z
" style="fill:#888800;stroke:#000000;"/>
    <path clip-path="url(#p945b3f9050)" d="M 111.394549 131.630667 
L 110.446224 38.167515 
L 128.865448 42.943696 
L 129.148982 136.814841 
z
" style="fill:#6a6a00;stroke:#000000;"/>
    <path clip-path="url(#p945b3f9050)" d="M 85.093381 153.881628 
L 96.091659 144.577012 
L 114.027121 149.924167 
L 103.15714 159.347486 
z
" style="fill:#745811;stroke:#000000;"/>
    <path clip-path="url(#p945b3f9050)" d="M 100.73226 140.651033 
L 99.368443 46.479418 
L 110.446224 38.167515 
L 111.394549 131.630667 
z
" style="fill:#e1e100;stroke:#000000;"/>
    <path clip-path="url(#p945b3f9050)" d="M 152.424691 155.96565 
L 162.714902 146.615863 
L 181.116196 151.988916 
L 170.964306 161.458275 
z
" style="fill:#888800;stroke:#000000;"/>
    <path clip-path="url(#p945b3f9050)" d="M 118.613134 145.948496 
L 129.148982 136.814841 
L 128.865448 42.943696 
L 117.923748 51.36397 
z
" style="fill:#6a6a00;stroke:#000000;"/>
    <path clip-path="url(#p945b3f9050)" d="M 136.825884 139.056445 
L 136.832494 44.649294 
L 155.59804 49.512928 
L 154.899407 144.333791 
z
" style="fill:#6a6a00;stroke:#000000;"/>
    <path clip-path="url(#p945b3f9050)" d="M 100.73226 140.651033 
L 118.613134 145.948496 
L 117.923748 51.36397 
L 99.368443 46.479418 
z
" style="fill:#e1e100;stroke:#000000;"/>
    <path clip-path="url(#p945b3f9050)" d="M 110.969654 161.711451 
L 121.783373 152.236563 
L 140.046275 157.681338 
L 129.366886 167.278213 
z
" style="fill:#745811;stroke:#000000;"/>
    <path clip-path="url(#p945b3f9050)" d="M 126.345455 148.239306 
L 125.948951 53.11377 
L 136.832494 44.649294 
L 136.825884 139.056445 
z
" style="fill:#e1e100;stroke:#000000;"/>
    <path clip-path="url(#p945b3f9050)" d="M 178.982805 163.833869 
L 189.074072 154.312563 
L 207.812134 159.78395 
L 197.865526 169.428144 
z
" style="fill:#888800;stroke:#000000;"/>
    <path clip-path="url(#p945b3f9050)" d="M 96.091659 144.577012 
L 94.455049 44.656962 
L 113.108198 49.563789 
L 114.027121 149.924167 
z
" style="fill:#5b450d;stroke:#000000;"/>
    <path clip-path="url(#p945b3f9050)" d="M 144.551231 153.633026 
L 154.899407 144.333791 
L 155.59804 49.512928 
L 144.85712 58.088817 
z
" style="fill:#6a6a00;stroke:#000000;"/>
    <path clip-path="url(#p945b3f9050)" d="M 68.954984 167.534818 
L 80.305388 157.932302 
L 98.424527 163.450246 
L 87.204262 173.17723 
z
" style="fill:#266f6d;stroke:#000000;"/>
    <path clip-path="url(#p945b3f9050)" d="M 162.714902 146.615863 
L 163.718241 51.362717 
L 182.8392 56.316788 
L 181.116196 151.988916 
z
" style="fill:#6a6a00;stroke:#000000;"/>
    <path clip-path="url(#p945b3f9050)" d="M 85.093381 153.881628 
L 82.989166 53.196973 
L 94.455049 44.656962 
L 96.091659 144.577012 
z
" style="fill:#c1921c;stroke:#000000;"/>
    <path clip-path="url(#p945b3f9050)" d="M 126.345455 148.239306 
L 144.551231 153.633026 
L 144.85712 58.088817 
L 125.948951 53.11377 
z
" style="fill:#e1e100;stroke:#000000;"/>
    <path clip-path="url(#p945b3f9050)" d="M 137.324293 169.686021 
L 147.944778 160.036144 
L 166.544168 165.581238 
L 156.064318 175.356508 
z
" style="fill:#745811;stroke:#000000;"/>
    <path clip-path="url(#p945b3f9050)" d="M 152.424691 155.96565 
L 153.038846 59.98498 
L 163.718241 51.362717 
L 162.714902 146.615863 
z
" style="fill:#e1e100;stroke:#000000;"/>
    <path clip-path="url(#p945b3f9050)" d="M 206.033109 171.847906 
L 215.916319 162.150317 
L 235.000478 167.722763 
L 225.26855 177.546679 
z
" style="fill:#888800;stroke:#000000;"/>
    <path clip-path="url(#p945b3f9050)" d="M 99.368443 46.479418 
L 117.923748 51.36397 
L 128.865448 42.943696 
L 110.446224 38.167515 
z
" style="fill:#c3c300;stroke:#000000;"/>
    <path clip-path="url(#p945b3f9050)" d="M 103.15714 159.347486 
L 114.027121 149.924167 
L 113.108198 49.563789 
L 101.781044 58.217214 
z
" style="fill:#5b450d;stroke:#000000;"/>
    <path clip-path="url(#p945b3f9050)" d="M 121.783373 152.236563 
L 121.177144 51.583381 
L 140.185581 56.582985 
L 140.046275 157.681338 
z
" style="fill:#5b450d;stroke:#000000;"/>
    <path clip-path="url(#p945b3f9050)" d="M 170.964306 161.458275 
L 181.116196 151.988916 
L 182.8392 56.316788 
L 172.309259 65.05363 
z
" style="fill:#6a6a00;stroke:#000000;"/>
    <path clip-path="url(#p945b3f9050)" d="M 95.098167 175.617911 
L 106.261333 165.836841 
L 124.71658 171.457142 
L 113.689817 181.366179 
z
" style="fill:#266f6d;stroke:#000000;"/>
    <path clip-path="url(#p945b3f9050)" d="M 189.074072 154.312563 
L 191.104025 58.797472 
L 210.586 63.847334 
L 207.812134 159.78395 
z
" style="fill:#6a6a00;stroke:#000000;"/>
    <path clip-path="url(#p945b3f9050)" d="M 85.093381 153.881628 
L 103.15714 159.347486 
L 101.781044 58.217214 
L 82.989166 53.196973 
z
" style="fill:#c1921c;stroke:#000000;"/>
    <path clip-path="url(#p945b3f9050)" d="M 110.969654 161.711451 
L 109.91042 60.285266 
L 121.177144 51.583381 
L 121.783373 152.236563 
z
" style="fill:#c1921c;stroke:#000000;"/>
    <path clip-path="url(#p945b3f9050)" d="M 152.424691 155.96565 
L 170.964306 161.458275 
L 172.309259 65.05363 
L 153.038846 59.98498 
z
" style="fill:#e1e100;stroke:#000000;"/>
    <path clip-path="url(#p945b3f9050)" d="M 164.170687 177.80939 
L 174.588872 167.979631 
L 193.534138 173.627842 
L 183.263176 183.586528 
z
" style="fill:#745811;stroke:#000000;"/>
    <path clip-path="url(#p945b3f9050)" d="M 178.982805 163.833869 
L 180.640952 67.586853 
L 191.104025 58.797472 
L 189.074072 154.312563 
z
" style="fill:#e1e100;stroke:#000000;"/>
    <path clip-path="url(#p945b3f9050)" d="M 80.305388 157.932302 
L 77.978115 56.204361 
L 96.83506 61.271064 
L 98.424527 163.450246 
z
" style="fill:#1e5755;stroke:#000000;"/>
    <path clip-path="url(#p945b3f9050)" d="M 125.948951 53.11377 
L 144.85712 58.088817 
L 155.59804 49.512928 
L 136.832494 44.649294 
z
" style="fill:#c3c300;stroke:#000000;"/>
    <path clip-path="url(#p945b3f9050)" d="M 52.292749 181.631179 
L 64.012464 171.716223 
L 82.317907 177.413271 
L 70.73015 187.458839 
z
" style="fill:#354f7e;stroke:#000000;"/>
    <path clip-path="url(#p945b3f9050)" d="M 129.366886 167.278213 
L 140.046275 157.681338 
L 140.185581 56.582985 
L 129.064398 65.401544 
z
" style="fill:#5b450d;stroke:#000000;"/>
    <path clip-path="url(#p945b3f9050)" d="M 147.944778 160.036144 
L 148.409259 58.81719 
L 167.78191 63.913067 
L 166.544168 165.581238 
z
" style="fill:#5b450d;stroke:#000000;"/>
    <path clip-path="url(#p945b3f9050)" d="M 68.954984 167.534818 
L 66.126345 65.023345 
L 77.978115 56.204361 
L 80.305388 157.932302 
z
" style="fill:#40b9b4;stroke:#000000;"/>
    <path clip-path="url(#p945b3f9050)" d="M 197.865526 169.428144 
L 207.812134 159.78395 
L 210.586 63.847334 
L 200.279454 72.754619 
z
" style="fill:#6a6a00;stroke:#000000;"/>
    <path clip-path="url(#p945b3f9050)" d="M 121.732515 183.852864 
L 132.699433 173.888214 
L 151.500227 179.613747 
L 140.676262 189.709995 
z
" style="fill:#266f6d;stroke:#000000;"/>
    <path clip-path="url(#p945b3f9050)" d="M 110.969654 161.711451 
L 129.366886 167.278213 
L 129.064398 65.401544 
L 109.91042 60.285266 
z
" style="fill:#c1921c;stroke:#000000;"/>
    <path clip-path="url(#p945b3f9050)" d="M 137.324293 169.686021 
L 137.352263 67.687054 
L 148.409259 58.81719 
L 147.944778 160.036144 
z
" style="fill:#c1921c;stroke:#000000;"/>
    <path clip-path="url(#p945b3f9050)" d="M 215.916319 162.150317 
L 219.189752 60.608808 
L 239.089355 65.73015 
L 235.000478 167.722763 
z
" style="fill:#6a6a00;stroke:#000000;"/>
    <path clip-path="url(#p945b3f9050)" d="M 178.982805 163.833869 
L 197.865526 169.428144 
L 200.279454 72.754619 
L 180.640952 67.586853 
z
" style="fill:#e1e100;stroke:#000000;"/>
    <path clip-path="url(#p945b3f9050)" d="M 191.522729 186.085761 
L 201.729138 176.071043 
L 221.030018 181.825274 
L 210.977721 191.972588 
z
" style="fill:#745811;stroke:#000000;"/>
    <path clip-path="url(#p945b3f9050)" d="M 206.033109 171.847906 
L 208.931924 69.523113 
L 219.189752 60.608808 
L 215.916319 162.150317 
z
" style="fill:#e1e100;stroke:#000000;"/>
    <path clip-path="url(#p945b3f9050)" d="M 87.204262 173.17723 
L 98.424527 163.450246 
L 96.83506 61.271064 
L 85.12416 70.209157 
z
" style="fill:#1e5755;stroke:#000000;"/>
    <path clip-path="url(#p945b3f9050)" d="M 82.989166 53.196973 
L 101.781044 58.217214 
L 113.108198 49.563789 
L 94.455049 44.656962 
z
" style="fill:#a77e19;stroke:#000000;"/>
    <path clip-path="url(#p945b3f9050)" d="M 106.261333 165.836841 
L 104.990675 63.188363 
L 124.214176 68.351705 
L 124.71658 171.457142 
z
" style="fill:#1e5755;stroke:#000000;"/>
    <path clip-path="url(#p945b3f9050)" d="M 153.038846 59.98498 
L 172.309259 65.05363 
L 182.8392 56.316788 
L 163.718241 51.362717 
z
" style="fill:#c3c300;stroke:#000000;"/>
    <path clip-path="url(#p945b3f9050)" d="M 78.706634 189.980032 
L 90.236462 179.877695 
L 108.887013 185.682148 
L 97.495648 195.918829 
z
" style="fill:#354f7e;stroke:#000000;"/>
    <path clip-path="url(#p945b3f9050)" d="M 156.064318 175.356508 
L 166.544168 165.581238 
L 167.78191 63.913067 
L 156.877567 72.903004 
z
" style="fill:#5b450d;stroke:#000000;"/>
    <path clip-path="url(#p945b3f9050)" d="M 68.954984 167.534818 
L 87.204262 173.17723 
L 85.12416 70.209157 
L 66.126345 65.023345 
z
" style="fill:#40b9b4;stroke:#000000;"/>
    <path clip-path="url(#p945b3f9050)" d="M 174.588872 167.979631 
L 176.171899 65.623325 
L 195.92379 70.815594 
L 193.534138 173.627842 
z
" style="fill:#5b450d;stroke:#000000;"/>
    <path clip-path="url(#p945b3f9050)" d="M 95.098167 175.617911 
L 93.340337 72.175986 
L 104.990675 63.188363 
L 106.261333 165.836841 
z
" style="fill:#40b9b4;stroke:#000000;"/>
    <path clip-path="url(#p945b3f9050)" d="M 148.872 192.243998 
L 159.633249 182.090551 
L 178.789386 187.924298 
L 168.177942 198.213115 
z
" style="fill:#266f6d;stroke:#000000;"/>
    <path clip-path="url(#p945b3f9050)" d="M 137.324293 169.686021 
L 156.064318 175.356508 
L 156.877567 72.903004 
L 137.352263 67.687054 
z
" style="fill:#c1921c;stroke:#000000;"/>
    <path clip-path="url(#p945b3f9050)" d="M 225.26855 177.546679 
L 235.000478 167.722763 
L 239.089355 65.73015 
L 228.996232 74.765452 
z
" style="fill:#6a6a00;stroke:#000000;"/>
    <path clip-path="url(#p945b3f9050)" d="M 164.170687 177.80939 
L 165.332521 74.66141 
L 176.171899 65.623325 
L 174.588872 167.979631 
z
" style="fill:#c1921c;stroke:#000000;"/>
    <path clip-path="url(#p945b3f9050)" d="M 206.033109 171.847906 
L 225.26855 177.546679 
L 228.996232 74.765452 
L 208.931924 69.523113 
z
" style="fill:#e1e100;stroke:#000000;"/>
    <path clip-path="url(#p945b3f9050)" d="M 64.012464 171.716223 
L 60.951367 68.504809 
L 80.012637 73.741245 
L 82.317907 177.413271 
z
" style="fill:#2a3e63;stroke:#000000;"/>
    <path clip-path="url(#p945b3f9050)" d="M 35.080749 196.192644 
L 47.188098 185.949748 
L 65.682437 191.834763 
L 53.708831 202.214828 
z
" style="fill:#000088;stroke:#000000;"/>
    <path clip-path="url(#p945b3f9050)" d="M 113.689817 181.366179 
L 124.71658 171.457142 
L 124.214176 68.351705 
L 112.711817 77.46191 
z
" style="fill:#1e5755;stroke:#000000;"/>
    <path clip-path="url(#p945b3f9050)" d="M 109.91042 60.285266 
L 129.064398 65.401544 
L 140.185581 56.582985 
L 121.177144 51.583381 
z
" style="fill:#a77e19;stroke:#000000;"/>
    <path clip-path="url(#p945b3f9050)" d="M 52.292749 181.631179 
L 48.695663 77.619988 
L 60.951367 68.504809 
L 64.012464 171.716223 
z
" style="fill:#5884d1;stroke:#000000;"/>
    <path clip-path="url(#p945b3f9050)" d="M 132.699433 173.888214 
L 132.532717 70.67715 
L 152.130765 75.941716 
L 151.500227 179.613747 
z
" style="fill:#1e5755;stroke:#000000;"/>
    <path clip-path="url(#p945b3f9050)" d="M 180.640952 67.586853 
L 200.279454 72.754619 
L 210.586 63.847334 
L 191.104025 58.797472 
z
" style="fill:#c3c300;stroke:#000000;"/>
    <path clip-path="url(#p945b3f9050)" d="M 105.624976 198.488333 
L 116.955559 188.193253 
L 135.96107 194.108177 
L 124.775759 204.541477 
z
" style="fill:#354f7e;stroke:#000000;"/>
    <path clip-path="url(#p945b3f9050)" d="M 95.098167 175.617911 
L 113.689817 181.366179 
L 112.711817 77.46191 
L 93.340337 72.175986 
z
" style="fill:#40b9b4;stroke:#000000;"/>
    <path clip-path="url(#p945b3f9050)" d="M 183.263176 183.586528 
L 193.534138 173.627842 
L 195.92379 70.815594 
L 185.244581 79.97725 
z
" style="fill:#5b450d;stroke:#000000;"/>
    <path clip-path="url(#p945b3f9050)" d="M 201.729138 176.071043 
L 204.46537 73.274941 
L 224.602037 78.569821 
L 221.030018 181.825274 
z
" style="fill:#5b450d;stroke:#000000;"/>
    <path clip-path="url(#p945b3f9050)" d="M 121.732515 183.852864 
L 121.095762 79.841412 
L 132.532717 70.67715 
L 132.699433 173.888214 
z
" style="fill:#40b9b4;stroke:#000000;"/>
    <path clip-path="url(#p945b3f9050)" d="M 176.531129 200.795799 
L 187.076854 190.448137 
L 206.598505 196.393197 
L 196.209754 206.880144 
z
" style="fill:#266f6d;stroke:#000000;"/>
    <path clip-path="url(#p945b3f9050)" d="M 164.170687 177.80939 
L 183.263176 183.586528 
L 185.244581 79.97725 
L 165.332521 74.66141 
z
" style="fill:#c1921c;stroke:#000000;"/>
    <path clip-path="url(#p945b3f9050)" d="M 191.522729 186.085761 
L 193.857286 82.492084 
L 204.46537 73.274941 
L 201.729138 176.071043 
z
" style="fill:#c1921c;stroke:#000000;"/>
    <path clip-path="url(#p945b3f9050)" d="M 70.73015 187.458839 
L 82.317907 177.413271 
L 80.012637 73.741245 
L 67.89988 82.981643 
z
" style="fill:#2a3e63;stroke:#000000;"/>
    <path clip-path="url(#p945b3f9050)" d="M 90.236462 179.877695 
L 88.263223 76.103344 
L 107.698542 81.443193 
L 108.887013 185.682148 
z
" style="fill:#2a3e63;stroke:#000000;"/>
    <path clip-path="url(#p945b3f9050)" d="M 66.126345 65.023345 
L 85.12416 70.209157 
L 96.83506 61.271064 
L 77.978115 56.204361 
z
" style="fill:#37a09c;stroke:#000000;"/>
    <path clip-path="url(#p945b3f9050)" d="M 61.769067 204.820583 
L 73.683924 194.380887 
L 92.532719 200.378692 
L 80.758364 210.959542 
z
" style="fill:#000088;stroke:#000000;"/>
    <path clip-path="url(#p945b3f9050)" d="M 52.292749 181.631179 
L 70.73015 187.458839 
L 67.89988 82.981643 
L 48.695663 77.619988 
z
" style="fill:#5884d1;stroke:#000000;"/>
    <path clip-path="url(#p945b3f9050)" d="M 140.676262 189.709995 
L 151.500227 179.613747 
L 152.130765 75.941716 
L 140.849195 85.232193 
z
" style="fill:#1e5755;stroke:#000000;"/>
    <path clip-path="url(#p945b3f9050)" d="M 137.352263 67.687054 
L 156.877567 72.903004 
L 167.78191 63.913067 
L 148.409259 58.81719 
z
" style="fill:#a77e19;stroke:#000000;"/>
    <path clip-path="url(#p945b3f9050)" d="M 78.706634 189.980032 
L 76.213768 85.398992 
L 88.263223 76.103344 
L 90.236462 179.877695 
z
" style="fill:#5884d1;stroke:#000000;"/>
    <path clip-path="url(#p945b3f9050)" d="M 159.633249 182.090551 
L 160.612136 78.208244 
L 180.596597 83.576529 
L 178.789386 187.924298 
z
" style="fill:#1e5755;stroke:#000000;"/>
    <path clip-path="url(#p945b3f9050)" d="M 133.062367 207.160693 
L 144.18391 196.667301 
L 163.55461 202.69588 
L 152.585468 213.331519 
z
" style="fill:#354f7e;stroke:#000000;"/>
    <path clip-path="url(#p945b3f9050)" d="M 121.732515 183.852864 
L 140.676262 189.709995 
L 140.849195 85.232193 
L 121.095762 79.841412 
z
" style="fill:#40b9b4;stroke:#000000;"/>
    <path clip-path="url(#p945b3f9050)" d="M 210.977721 191.972588 
L 221.030018 181.825274 
L 224.602037 78.569821 
L 214.161904 87.914215 
z
" style="fill:#5b450d;stroke:#000000;"/>
    <path clip-path="url(#p945b3f9050)" d="M 208.931924 69.523113 
L 228.996232 74.765452 
L 239.089355 65.73015 
L 219.189752 60.608808 
z
" style="fill:#c3c300;stroke:#000000;"/>
    <path clip-path="url(#p945b3f9050)" d="M 148.872 192.243998 
L 149.398751 87.553516 
L 160.612136 78.208244 
L 159.633249 182.090551 
z
" style="fill:#40b9b4;stroke:#000000;"/>
    <path clip-path="url(#p945b3f9050)" d="M 47.188098 185.949748 
L 43.36359 81.85704 
L 62.627549 87.274999 
L 65.682437 191.834763 
z
" style="fill:#00006a;stroke:#000000;"/>
    <path clip-path="url(#p945b3f9050)" d="M 191.522729 186.085761 
L 210.977721 191.972588 
L 214.161904 87.914215 
L 193.857286 82.492084 
z
" style="fill:#c1921c;stroke:#000000;"/>
    <path clip-path="url(#p945b3f9050)" d="M 97.495648 195.918829 
L 108.887013 185.682148 
L 107.698542 81.443193 
L 95.799388 90.867801 
z
" style="fill:#2a3e63;stroke:#000000;"/>
    <path clip-path="url(#p945b3f9050)" d="M 35.080749 196.192644 
L 30.68635 91.289005 
L 43.36359 81.85704 
L 47.188098 185.949748 
z
" style="fill:#0000e1;stroke:#000000;"/>
    <path clip-path="url(#p945b3f9050)" d="M 116.955559 188.193253 
L 116.110848 83.862791 
L 135.931228 89.309187 
L 135.96107 194.108177 
z
" style="fill:#2a3e63;stroke:#000000;"/>
    <path clip-path="url(#p945b3f9050)" d="M 93.340337 72.175986 
L 112.711817 77.46191 
L 124.214176 68.351705 
L 104.990675 63.188363 
z
" style="fill:#37a09c;stroke:#000000;"/>
    <path clip-path="url(#p945b3f9050)" d="M 187.076854 190.448137 
L 189.012524 97.149005 
L 209.302156 102.677618 
L 206.598505 196.393197 
z
" style="fill:#1e5755;stroke:#000000;"/>
    <path clip-path="url(#p945b3f9050)" d="M 88.975655 213.61607 
L 100.688296 202.973849 
L 119.901835 209.087718 
L 108.336777 219.875235 
z
" style="fill:#000088;stroke:#000000;"/>
    <path clip-path="url(#p945b3f9050)" d="M 78.706634 189.980032 
L 97.495648 195.918829 
L 95.799388 90.867801 
L 76.213768 85.398992 
z
" style="fill:#5884d1;stroke:#000000;"/>
    <path clip-path="url(#p945b3f9050)" d="M 168.177942 198.213115 
L 178.789386 187.924298 
L 180.596597 83.576529 
L 169.546371 93.05179 
z
" style="fill:#1e5755;stroke:#000000;"/>
    <path clip-path="url(#p945b3f9050)" d="M 105.624976 198.488333 
L 104.278264 93.34439 
L 116.110848 83.862791 
L 116.955559 188.193253 
z
" style="fill:#5884d1;stroke:#000000;"/>
    <path clip-path="url(#p945b3f9050)" d="M 165.332521 74.66141 
L 185.244581 79.97725 
L 195.92379 70.815594 
L 176.171899 65.623325 
z
" style="fill:#a77e19;stroke:#000000;"/>
    <path clip-path="url(#p945b3f9050)" d="M 176.531129 200.795799 
L 178.080436 106.773646 
L 189.012524 97.149005 
L 187.076854 190.448137 
z
" style="fill:#40b9b4;stroke:#000000;"/>
    <path clip-path="url(#p945b3f9050)" d="M 161.033965 216.001905 
L 171.936214 205.304415 
L 191.682732 211.449956 
L 180.940349 222.293878 
z
" style="fill:#354f7e;stroke:#000000;"/>
    <path clip-path="url(#p945b3f9050)" d="M 148.872 192.243998 
L 168.177942 198.213115 
L 169.546371 93.05179 
L 149.398751 87.553516 
z
" style="fill:#40b9b4;stroke:#000000;"/>
    <path clip-path="url(#p945b3f9050)" d="M 53.708831 202.214828 
L 65.682437 191.834763 
L 62.627549 87.274999 
L 50.095225 96.838762 
z
" style="fill:#00006a;stroke:#000000;"/>
    <path clip-path="url(#p945b3f9050)" d="M 73.683924 194.380887 
L 70.961489 89.46938 
L 90.611879 94.994977 
L 92.532719 200.378692 
z
" style="fill:#00006a;stroke:#000000;"/>
    <path clip-path="url(#p945b3f9050)" d="M 48.695663 77.619988 
L 67.89988 82.981643 
L 80.012637 73.741245 
L 60.951367 68.504809 
z
" style="fill:#4d72b6;stroke:#000000;"/>
    <path clip-path="url(#p945b3f9050)" d="M 144.18391 196.667301 
L 144.498941 95.268938 
L 164.687729 100.841801 
L 163.55461 202.69588 
z
" style="fill:#2a3e63;stroke:#000000;"/>
    <path clip-path="url(#p945b3f9050)" d="M 35.080749 196.192644 
L 53.708831 202.214828 
L 50.095225 96.838762 
L 30.68635 91.289005 
z
" style="fill:#0000e1;stroke:#000000;"/>
    <path clip-path="url(#p945b3f9050)" d="M 124.775759 204.541477 
L 135.96107 194.108177 
L 135.931228 89.309187 
L 124.256653 98.923636 
z
" style="fill:#2a3e63;stroke:#000000;"/>
    <path clip-path="url(#p945b3f9050)" d="M 196.209754 206.880144 
L 206.598505 196.393197 
L 209.302156 102.677618 
L 198.539801 112.436867 
z
" style="fill:#1e5755;stroke:#000000;"/>
    <path clip-path="url(#p945b3f9050)" d="M 61.769067 204.820583 
L 58.492092 99.089221 
L 70.961489 89.46938 
L 73.683924 194.380887 
z
" style="fill:#0000e1;stroke:#000000;"/>
    <path clip-path="url(#p945b3f9050)" d="M 121.095762 79.841412 
L 140.849195 85.232193 
L 152.130765 75.941716 
L 132.532717 70.67715 
z
" style="fill:#37a09c;stroke:#000000;"/>
    <path clip-path="url(#p945b3f9050)" d="M 116.715758 222.584036 
L 128.215997 211.733337 
L 147.80497 217.966672 
L 136.459734 228.966971 
z
" style="fill:#000088;stroke:#000000;"/>
    <path clip-path="url(#p945b3f9050)" d="M 133.062367 207.160693 
L 132.910391 104.971127 
L 144.498941 95.268938 
L 144.18391 196.667301 
z
" style="fill:#5884d1;stroke:#000000;"/>
    <path clip-path="url(#p945b3f9050)" d="M 105.624976 198.488333 
L 124.775759 204.541477 
L 124.256653 98.923636 
L 104.278264 93.34439 
z
" style="fill:#5884d1;stroke:#000000;"/>
    <path clip-path="url(#p945b3f9050)" d="M 176.531129 200.795799 
L 196.209754 206.880144 
L 198.539801 112.436867 
L 178.080436 106.773646 
z
" style="fill:#40b9b4;stroke:#000000;"/>
    <path clip-path="url(#p945b3f9050)" d="M 193.857286 82.492084 
L 214.161904 87.914215 
L 224.602037 78.569821 
L 204.46537 73.274941 
z
" style="fill:#a77e19;stroke:#000000;"/>
    <path clip-path="url(#p945b3f9050)" d="M 171.936214 205.304415 
L 173.04528 129.375772 
L 193.42458 135.18469 
L 191.682732 211.449956 
z
" style="fill:#2a3e63;stroke:#000000;"/>
    <path clip-path="url(#p945b3f9050)" d="M 100.688296 202.973849 
L 99.242457 105.766194 
L 119.223691 111.443542 
L 119.901835 209.087718 
z
" style="fill:#00006a;stroke:#000000;"/>
    <path clip-path="url(#p945b3f9050)" d="M 161.033965 216.001905 
L 161.80968 139.488901 
L 173.04528 129.375772 
L 171.936214 205.304415 
z
" style="fill:#5884d1;stroke:#000000;"/>
    <path clip-path="url(#p945b3f9050)" d="M 80.758364 210.959542 
L 92.532719 200.378692 
L 90.611879 94.994977 
L 78.295078 104.750605 
z
" style="fill:#00006a;stroke:#000000;"/>
    <path clip-path="url(#p945b3f9050)" d="M 76.213768 85.398992 
L 95.799388 90.867801 
L 107.698542 81.443193 
L 88.263223 76.103344 
z
" style="fill:#4d72b6;stroke:#000000;"/>
    <path clip-path="url(#p945b3f9050)" d="M 88.975655 213.61607 
L 87.035453 115.650568 
L 99.242457 105.766194 
L 100.688296 202.973849 
z
" style="fill:#0000e1;stroke:#000000;"/>
    <path clip-path="url(#p945b3f9050)" d="M 128.215997 211.733337 
L 127.997372 149.298262 
L 148.096027 155.256765 
L 147.80497 217.966672 
z
" style="fill:#00006a;stroke:#000000;"/>
    <path clip-path="url(#p945b3f9050)" d="M 152.585468 213.331519 
L 163.55461 202.69588 
L 164.687729 100.841801 
L 153.264807 110.681106 
z
" style="fill:#2a3e63;stroke:#000000;"/>
    <path clip-path="url(#p945b3f9050)" d="M 61.769067 204.820583 
L 80.758364 210.959542 
L 78.295078 104.750605 
L 58.492092 99.089221 
z
" style="fill:#0000e1;stroke:#000000;"/>
    <path clip-path="url(#p945b3f9050)" d="M 149.398751 87.553516 
L 169.546371 93.05179 
L 180.596597 83.576529 
L 160.612136 78.208244 
z
" style="fill:#37a09c;stroke:#000000;"/>
    <path clip-path="url(#p945b3f9050)" d="M 116.715758 222.584036 
L 116.192796 159.671907 
L 127.997372 149.298262 
L 128.215997 211.733337 
z
" style="fill:#0000e1;stroke:#000000;"/>
    <path clip-path="url(#p945b3f9050)" d="M 145.005226 231.729602 
L 156.282388 220.66424 
L 176.257909 227.020577 
L 165.143525 238.240017 
z
" style="fill:#000088;stroke:#000000;"/>
    <path clip-path="url(#p945b3f9050)" d="M 133.062367 207.160693 
L 152.585468 213.331519 
L 153.264807 110.681106 
L 132.910391 104.971127 
z
" style="fill:#5884d1;stroke:#000000;"/>
    <path clip-path="url(#p945b3f9050)" d="M 180.940349 222.293878 
L 191.682732 211.449956 
L 193.42458 135.18469 
L 182.359368 145.440676 
z
" style="fill:#2a3e63;stroke:#000000;"/>
    <path clip-path="url(#p945b3f9050)" d="M 156.282388 220.66424 
L 156.642591 176.621166 
L 176.989754 182.785606 
L 176.257909 227.020577 
z
" style="fill:#00006a;stroke:#000000;"/>
    <path clip-path="url(#p945b3f9050)" d="M 30.68635 91.289005 
L 50.095225 96.838762 
L 62.627549 87.274999 
L 43.36359 81.85704 
z
" style="fill:#0000c3;stroke:#000000;"/>
    <path clip-path="url(#p945b3f9050)" d="M 108.336777 219.875235 
L 119.901835 209.087718 
L 119.223691 111.443542 
L 107.176271 121.468381 
z
" style="fill:#00006a;stroke:#000000;"/>
    <path clip-path="url(#p945b3f9050)" d="M 178.080436 106.773646 
L 198.539801 112.436867 
L 209.302156 102.677618 
L 189.012524 97.149005 
z
" style="fill:#37a09c;stroke:#000000;"/>
    <path clip-path="url(#p945b3f9050)" d="M 161.033965 216.001905 
L 180.940349 222.293878 
L 182.359368 145.440676 
L 161.80968 139.488901 
z
" style="fill:#5884d1;stroke:#000000;"/>
    <path clip-path="url(#p945b3f9050)" d="M 145.005226 231.729602 
L 145.160374 187.353473 
L 156.642591 176.621166 
L 156.282388 220.66424 
z
" style="fill:#0000e1;stroke:#000000;"/>
    <path clip-path="url(#p945b3f9050)" d="M 104.278264 93.34439 
L 124.256653 98.923636 
L 135.931228 89.309187 
L 116.110848 83.862791 
z
" style="fill:#4d72b6;stroke:#000000;"/>
    <path clip-path="url(#p945b3f9050)" d="M 88.975655 213.61607 
L 108.336777 219.875235 
L 107.176271 121.468381 
L 87.035453 115.650568 
z
" style="fill:#0000e1;stroke:#000000;"/>
    <path clip-path="url(#p945b3f9050)" d="M 136.459734 228.966971 
L 147.80497 217.966672 
L 148.096027 155.256765 
L 136.454652 165.777202 
z
" style="fill:#00006a;stroke:#000000;"/>
    <path clip-path="url(#p945b3f9050)" d="M 116.715758 222.584036 
L 136.459734 228.966971 
L 136.454652 165.777202 
L 116.192796 159.671907 
z
" style="fill:#0000e1;stroke:#000000;"/>
    <path clip-path="url(#p945b3f9050)" d="M 165.143525 238.240017 
L 176.257909 227.020577 
L 176.989754 182.785606 
L 165.676479 193.67014 
z
" style="fill:#00006a;stroke:#000000;"/>
    <path clip-path="url(#p945b3f9050)" d="M 58.492092 99.089221 
L 78.295078 104.750605 
L 90.611879 94.994977 
L 70.961489 89.46938 
z
" style="fill:#0000c3;stroke:#000000;"/>
    <path clip-path="url(#p945b3f9050)" d="M 161.80968 139.488901 
L 182.359368 145.440676 
L 193.42458 135.18469 
L 173.04528 129.375772 
z
" style="fill:#4d72b6;stroke:#000000;"/>
    <path clip-path="url(#p945b3f9050)" d="M 132.910391 104.971127 
L 153.264807 110.681106 
L 164.687729 100.841801 
L 144.498941 95.268938 
z
" style="fill:#4d72b6;stroke:#000000;"/>
    <path clip-path="url(#p945b3f9050)" d="M 145.005226 231.729602 
L 165.143525 238.240017 
L 165.676479 193.67014 
L 145.160374 187.353473 
z
" style="fill:#0000e1;stroke:#000000;"/>
    <path clip-path="url(#p945b3f9050)" d="M 116.192796 159.671907 
L 136.454652 165.777202 
L 148.096027 155.256765 
L 127.997372 149.298262 
z
" style="fill:#0000c3;stroke:#000000;"/>
    <path clip-path="url(#p945b3f9050)" d="M 145.160374 187.353473 
L 165.676479 193.67014 
L 176.989754 182.785606 
L 156.642591 176.621166 
z
" style="fill:#0000c3;stroke:#000000;"/>
    <path clip-path="url(#p945b3f9050)" d="M 87.035453 115.650568 
L 107.176271 121.468381 
L 119.223691 111.443542 
L 99.242457 105.766194 
z
" style="fill:#0000c3;stroke:#000000;"/>
   </g>
  </g>
 </g>
 <defs>
  <clipPath id="p945b3f9050">
   <rect height="266.112" width="266.112" x="0" y="0"/>
  </clipPath>
 </defs>
</svg>
